/* XPM */
static char * mspp48x48_xpm[] = {
"48 48 620 2",
"  	c None",
". 	c #EEEEEE",
"+ 	c #EFE0E0",
"@ 	c #F2B2B2",
"# 	c #F0C6C6",
"$ 	c #EEEBEB",
"% 	c #F48C8C",
"& 	c #F94A4A",
"* 	c #FB3737",
"= 	c #FA3C3C",
"- 	c #F67272",
"; 	c #F0D1D1",
"> 	c #EFD2D2",
", 	c #FD1919",
"' 	c #FF0000",
") 	c #FE0202",
"! 	c #F2B6B6",
"~ 	c #D6D6EF",
"{ 	c #A7A7F3",
"] 	c #EFD5D5",
"^ 	c #FC2424",
"/ 	c #FE0404",
"( 	c #F49696",
"_ 	c #EEE6E6",
": 	c #FC1C1C",
"< 	c #FA3939",
"[ 	c #7777F6",
"} 	c #FC1E1E",
"| 	c #F3A3A3",
"1 	c #F67878",
"2 	c #FE0101",
"3 	c #BEBEF1",
"4 	c #8E8EF4",
"5 	c #4747F9",
"6 	c #7A7AF9",
"7 	c #DE5E77",
"8 	c #F58080",
"9 	c #F2B4B4",
"0 	c #F39C9C",
"a 	c #FC2A2A",
"b 	c #FD1414",
"c 	c #EEE7E7",
"d 	c #FD0F0F",
"e 	c #FE0303",
"f 	c #F1BCBC",
"g 	c #3333FF",
"h 	c #6666FF",
"i 	c #4A4AFD",
"j 	c #8E8DF3",
"k 	c #F40C14",
"l 	c #D67595",
"m 	c #EFDFDF",
"n 	c #FD1818",
"o 	c #F58484",
"p 	c #F58888",
"q 	c #FC2020",
"r 	c #F94747",
"s 	c #E38FA0",
"t 	c #6060F9",
"u 	c #1919FF",
"v 	c #6969FF",
"w 	c #7979FE",
"x 	c #B0B0FE",
"y 	c #BEBEFD",
"z 	c #C6C6FD",
"A 	c #C8C8FD",
"B 	c #C7C7FD",
"C 	c #BFBFFD",
"D 	c #B0B0FD",
"E 	c #8787FE",
"F 	c #7272FE",
"G 	c #6767FE",
"H 	c #3131FD",
"I 	c #7834B5",
"J 	c #F30D16",
"K 	c #BEBCEF",
"L 	c #F48D8D",
"M 	c #FB2E2E",
"N 	c #FB3636",
"O 	c #F86060",
"P 	c #CA628E",
"Q 	c #5F5FF8",
"R 	c #6363FC",
"S 	c #8B8BFC",
"T 	c #9696FC",
"U 	c #AEAEFD",
"V 	c #C9C9FD",
"W 	c #DBDBFD",
"X 	c #E1E1FD",
"Y 	c #E2E2FD",
"Z 	c #CECEFD",
"` 	c #BDBDFD",
" .	c #ACACFB",
"..	c #9797FA",
"+.	c #7878F8",
"@.	c #6767F9",
"#.	c #99187D",
"$.	c #B9296A",
"%.	c #FE0505",
"&.	c #FE0000",
"*.	c #EFDBDB",
"=.	c #F76E6E",
"-.	c #CF5881",
";.	c #4C4CFF",
">.	c #6B6BFB",
",.	c #8989F9",
"'.	c #8D8DFA",
").	c #9494FB",
"!.	c #A0A0FD",
"~.	c #B8B8FD",
"{.	c #D6D6FD",
"].	c #EBEBFD",
"^.	c #F3F3FD",
"/.	c #F4F4FD",
"(.	c #F1F1FD",
"_.	c #EAEAFD",
":.	c #E0E0FD",
"<.	c #D5D5FB",
"[.	c #C4C4FB",
"}.	c #ADADFA",
"|.	c #9494F7",
"1.	c #7878F5",
"2.	c #C31C55",
"3.	c #9A3B9B",
"4.	c #FA3A3A",
"5.	c #F39B9B",
"6.	c #FB3838",
"7.	c #E96F7B",
"8.	c #B22D76",
"9.	c #7F7FFF",
"0.	c #9494FA",
"a.	c #9F9FFA",
"b.	c #A1A1FA",
"c.	c #9797FB",
"d.	c #8A8AFD",
"e.	c #A3A3FD",
"f.	c #CACAFD",
"g.	c #E9E9FD",
"h.	c #F7F7FD",
"i.	c #FAFAFD",
"j.	c #F9F9FD",
"k.	c #EFEFFD",
"l.	c #E6E6FB",
"m.	c #D6D6FB",
"n.	c #C3C3FB",
"o.	c #AAAAF9",
"p.	c #E3233C",
"q.	c #7936BA",
"r.	c #F67676",
"s.	c #F76F6F",
"t.	c #F85C5C",
"u.	c #CD5F89",
"v.	c #BA2969",
"w.	c #B678BE",
"x.	c #DD5C7D",
"y.	c #CE8EBC",
"z.	c #ABABFB",
"A.	c #8989FB",
"B.	c #6B6BFD",
"C.	c #6262FD",
"D.	c #7C7CFD",
"E.	c #DDDDFD",
"F.	c #FBFBFD",
"G.	c #F6F6FD",
"H.	c #EEEEFB",
"I.	c #E4E4FB",
"J.	c #D4D4FB",
"K.	c #F51D26",
"L.	c #693FD5",
"M.	c #F1C0C0",
"N.	c #F67D7D",
"O.	c #F1C4C4",
"P.	c #FC2222",
"Q.	c #F1B7B7",
"R.	c #B85898",
"S.	c #B3135F",
"T.	c #9999FF",
"U.	c #B87FC3",
"V.	c #FD0304",
"W.	c #AE88D7",
"X.	c #7272FD",
"Y.	c #5252FD",
"Z.	c #4949FD",
"`.	c #5E5EFD",
" +	c #9393FD",
".+	c #F0F0FD",
"++	c #FCFCFD",
"@+	c #FB171A",
"#+	c #957ADB",
"$+	c #EEE4E4",
"%+	c #D7D1E9",
"&+	c #B260A4",
"*+	c #C41853",
"=+	c #A3A3FB",
"-+	c #F2323E",
";+	c #CD3D6E",
">+	c #6363FD",
",+	c #5050FD",
"'+	c #4B4BFD",
")+	c #5353FD",
"!+	c #7E7EFD",
"~+	c #FDFDFD",
"{+	c #F8F8FD",
"]+	c #FD1718",
"^+	c #AD93DF",
"/+	c #7F7FF7",
"(+	c #F0CFCF",
"_+	c #FC1D1D",
":+	c #A252A8",
"<+	c #D62750",
"[+	c #9E9EFC",
"}+	c #D1B1DC",
"|+	c #E11B38",
"1+	c #6565FD",
"2+	c #5959FD",
"3+	c #7373FD",
"4+	c #B2B2FD",
"5+	c #E5E5FD",
"6+	c #FD1D1E",
"7+	c #CBACDC",
"8+	c #A0A0F8",
"9+	c #7D7DF7",
"0+	c #6464FD",
"a+	c #F0CECE",
"b+	c #FD1212",
"c+	c #C3B1E0",
"d+	c #8031AB",
"e+	c #DE2F4F",
"f+	c #C2C2FA",
"g+	c #EE808E",
"h+	c #F00A18",
"i+	c #8282FD",
"j+	c #8080FD",
"k+	c #6F6BF9",
"l+	c #A7A7FD",
"m+	c #DEDEFD",
"n+	c #F5F5FD",
"o+	c #EEEEFD",
"p+	c #E8E8FD",
"q+	c #FB2124",
"r+	c #DCB7D7",
"s+	c #BABAF9",
"t+	c #9191F5",
"u+	c #5252FA",
"v+	c #EEE9E9",
"w+	c #FB2D2D",
"x+	c #EE2E3B",
"y+	c #8F8DF2",
"z+	c #9242AB",
"A+	c #E3344F",
"B+	c #D9D9FB",
"C+	c #FA4F53",
"D+	c #FA0307",
"E+	c #7B7BFD",
"F+	c #9E9EFD",
"G+	c #9A9AFD",
"H+	c #8661D8",
"I+	c #EC0D1F",
"J+	c #EA6C7F",
"K+	c #C0C0FD",
"L+	c #F4202A",
"M+	c #DEB3D1",
"N+	c #C9C9FA",
"O+	c #A7A7F8",
"P+	c #7878F4",
"Q+	c #7D7DFD",
"R+	c #BFBBED",
"S+	c #6111AF",
"T+	c #ED3E4F",
"U+	c #E7E7FD",
"V+	c #FE1616",
"W+	c #8F8DFB",
"X+	c #B6B6FD",
"Y+	c #AEABFA",
"Z+	c #EC1123",
"`+	c #F3C7D1",
" @	c #DCDCFD",
".@	c #BABAFD",
"+@	c #9797FD",
"@@	c #8484FD",
"#@	c #E51B34",
"$@	c #D59CC4",
"%@	c #CDCDFB",
"&@	c #B8B8F9",
"*@	c #9494F5",
"=@	c #6868F9",
"-@	c #8434AF",
";@	c #F3444F",
">@	c #F2D3DE",
",@	c #FC090B",
"'@	c #FB0508",
")@	c #A69BF2",
"!@	c #D27EA9",
"~@	c #F6747C",
"{@	c #BBBBFD",
"]@	c #5858FD",
"^@	c #CC1D4F",
"/@	c #CD78A8",
"(@	c #CBCBFB",
"_@	c #C6C6FA",
":@	c #A9A9F8",
"<@	c #7A7AF6",
"[@	c #9744AC",
"}@	c #F74B52",
"|@	c #F9A0A4",
"1@	c #ED3445",
"2@	c #F60A12",
"3@	c #BBA7E9",
"4@	c #D7D7FD",
"5@	c #EC4052",
"6@	c #FA3D41",
"7@	c #6969FD",
"8@	c #5656FD",
"9@	c #5A5AFD",
"0@	c #E01230",
"a@	c #CA598C",
"b@	c #C3C3FC",
"c@	c #CFCFFB",
"d@	c #BDBDFA",
"e@	c #9999F5",
"f@	c #7D7DFC",
"g@	c #9A43A8",
"h@	c #FA5256",
"i@	c #FB7275",
"j@	c #D6547C",
"k@	c #F10C19",
"l@	c #CCB2E3",
"m@	c #E2DFFA",
"n@	c #FC0C0E",
"o@	c #FC1B1D",
"p@	c #7F7FFD",
"q@	c #6161FD",
"r@	c #A55CB4",
"s@	c #CB4275",
"t@	c #D2D2FB",
"u@	c #A8A8F8",
"v@	c #7070FB",
"w@	c #9C42A5",
"x@	c #FB5659",
"y@	c #FC494B",
"z@	c #BA64A7",
"A@	c #F20915",
"B@	c #D9C3E7",
"C@	c #EEB9C8",
"D@	c #F10A17",
"E@	c #F9F7FB",
"F@	c #D2D2FD",
"G@	c #6E6EFD",
"H@	c #8C8CFD",
"I@	c #CE6190",
"J@	c #D1325F",
"K@	c #D0D0FC",
"L@	c #D1D1FB",
"M@	c #B6B6FA",
"N@	c #8282FB",
"O@	c #CE71A2",
"P@	c #FC5A5C",
"Q@	c #FD2021",
"R@	c #9A6ED1",
"S@	c #F5060F",
"T@	c #E3D3ED",
"U@	c #F78086",
"V@	c #C9285D",
"W@	c #F40812",
"X@	c #F7E0E6",
"Y@	c #C1C1FD",
"Z@	c #8787FD",
"`@	c #6666FD",
" #	c #7979FD",
".#	c #A9A9FD",
"+#	c #CEB2E1",
"@#	c #D8264C",
"##	c #CDCDFD",
"$#	c #D7D7FB",
"%#	c #C6C6FB",
"&#	c #ADADFC",
"*#	c #CF6E9E",
"=#	c #FC5557",
"-#	c #FD0203",
";#	c #7973F7",
">#	c #F8040A",
",#	c #ECE1F2",
"'#	c #FC4749",
")#	c #A5469E",
"!#	c #E5132C",
"~#	c #F7C6CC",
"{#	c #AFAFFD",
"]#	c #7676FD",
"^#	c #DADAFD",
"/#	c #F22F3B",
"(#	c #CB3164",
"_#	c #D1D1FD",
":#	c #D06C9B",
"<#	c #FD3233",
"[#	c #EE1626",
"}#	c #FC0204",
"|#	c #F2EDF8",
"1#	c #FE1818",
"2#	c #8A63D6",
"3#	c #D71C43",
"4#	c #F6B0B7",
"5#	c #F2F2FD",
"6#	c #9F9FFD",
"7#	c #E4E4FD",
"8#	c #E37E98",
"9#	c #DF1D3C",
"0#	c #9B9BFD",
"a#	c #C4C4FD",
"b#	c #D4D4FD",
"c#	c #D16997",
"d#	c #FE0F0F",
"e#	c #D9284D",
"f#	c #6563FB",
"g#	c #F6DFE6",
"h#	c #FB080B",
"i#	c #7D7BFB",
"j#	c #D0214F",
"k#	c #F4A3AC",
"l#	c #EDEDFD",
"m#	c #CCCCFD",
"n#	c #9292FD",
"o#	c #6767FD",
"p#	c #7474FD",
"q#	c #ACACFD",
"r#	c #DAC5E8",
"s#	c #FD0001",
"t#	c #9E8BEA",
"u#	c #D8D8FD",
"v#	c #D26794",
"w#	c #C03775",
"x#	c #6860F5",
"y#	c #FE0707",
"z#	c #FAB4B7",
"A#	c #F02A38",
"B#	c #CA265A",
"C#	c #F397A1",
"D#	c #C2C2FD",
"E#	c #8888FD",
"F#	c #B7B7FD",
"G#	c #EB2A3D",
"H#	c #BD5A9A",
"I#	c #BCBCFD",
"J#	c #D36591",
"K#	c #A7459B",
"L#	c #7364EE",
"M#	c #FE0D0D",
"N#	c #FC898A",
"O#	c #E74F66",
"P#	c #C32A65",
"Q#	c #F18A96",
"R#	c #6868FD",
"S#	c #D4648D",
"T#	c #DE2A4A",
"U#	c #D0D0FB",
"V#	c #BABAFB",
"W#	c #D5618B",
"X#	c #8C52C3",
"Y#	c #846FE8",
"Z#	c #FE1414",
"`#	c #FD5D5E",
" $	c #E07592",
".$	c #9090FD",
"+$	c #BD2F70",
"@$	c #F07E8B",
"#$	c #FFFFFF",
"$$	c #C1A2DE",
"%$	c #FA0509",
"&$	c #B0A8F4",
"*$	c #C0C0FA",
"=$	c #AF3484",
"-$	c #7663EA",
";$	c #987CE1",
">$	c #FE1A1A",
",$	c #FE3232",
"'$	c #DD9FBF",
")$	c #9898FD",
"!$	c #B6347C",
"~$	c #ED6F7F",
"{$	c #0000FF",
"]$	c #ED1627",
"^$	c #BD78B7",
"/$	c #B9B9FA",
"($	c #AFAFF8",
"_$	c #8282F9",
":$	c #B3327E",
"<$	c #F30914",
"[$	c #AF8DDB",
"}$	c #FE1E1E",
"|$	c #FE0808",
"1$	c #DCCCED",
"2$	c #A2A2FD",
"3$	c #B03A87",
"4$	c #E85E74",
"5$	c #C3C3FD",
"6$	c #CF3F6E",
"7$	c #CE4978",
"8$	c #ABABF9",
"9$	c #A0A0F6",
"0$	c #8181F9",
"a$	c #EDEDED",
"b$	c #BDBDF0",
"c$	c #7979F9",
"d$	c #B72F77",
"e$	c #DC193B",
"f$	c #C59CD4",
"g$	c #ADADFD",
"h$	c #AC4293",
"i$	c #E14B68",
"j$	c #ECECFD",
"k$	c #BD63A3",
"l$	c #D9294D",
"m$	c #9696F9",
"n$	c #8C8CF3",
"o$	c #A41671",
"p$	c #C92B60",
"q$	c #D8A8CD",
"r$	c #FD4546",
"s$	c #B9B9FD",
"t$	c #AB4D9F",
"u$	c #D9375C",
"v$	c #B383CD",
"w$	c #E91025",
"x$	c #7878F6",
"y$	c #6B6BF4",
"z$	c #A7146A",
"A$	c #C04784",
"B$	c #E9B1C5",
"C$	c #FC7072",
"D$	c #B2AAF5",
"E$	c #FC0002",
"F$	c #5D57EE",
"G$	c #6D6DF7",
"H$	c #BC2464",
"I$	c #C26FAA",
"J$	c #F3B3BD",
"K$	c #FC9A9B",
"L$	c #F10F1C",
"M$	c #B71C60",
"N$	c #C59BD2",
"O$	c #F7B5BB",
"P$	c #FCC3C4",
"Q$	c #ED192A",
"R$	c #CC2B5A",
"S$	c #FB0306",
"T$	c #B7B3F6",
"U$	c #DBDBFB",
"V$	c #F3B4BE",
"W$	c #FCEFF0",
"X$	c #F01927",
"Y$	c #D73255",
"Z$	c #E7172F",
"`$	c #9B9BFB",
" %	c #E6ABC1",
".%	c #FE2222",
"+%	c #BCB6F4",
"@%	c #F9060B",
"#%	c #D92F51",
"$%	c #B5125C",
"%%	c #9696FA",
"&%	c #D098C5",
"*%	c #FD5253",
"=%	c #F3EEF8",
"-%	c #F0F0FB",
";%	c #E7E7FB",
">%	c #D7D7FA",
",%	c #BEBEF9",
"'%	c #C25F95",
")%	c #EA3C4C",
"!%	c #9B2889",
"~%	c #AF7DC9",
"{%	c #F87E83",
"]%	c #E8E8FB",
"^%	c #DCDCFA",
"/%	c #F1434B",
"(%	c #8547BB",
"_%	c #8F6FDF",
":%	c #E8A3B7",
"<%	c #E9E9FB",
"[%	c #FC3D3F",
"}%	c #CDCDFA",
"|%	c #FB0507",
"1%	c #625DF2",
"2%	c #6662F9",
"3%	c #FA0106",
"4%	c #FC0406",
"5%	c #BCB5F3",
"6%	c #CACAFA",
"7%	c #E3E3FC",
"8%	c #F85B61",
"9%	c #A2A2F6",
"0%	c #9A7ED7",
"a%	c #E2364E",
"b%	c #BC0647",
"c%	c #CC1A4C",
"d%	c #9191F7",
"e%	c #9F9FF8",
"f%	c #B2B2FA",
"g%	c #E97B8F",
"h%	c #D32047",
"i%	c #F95050",
"j%	c #DDB3C8",
"k%	c #5C40DD",
"l%	c #DA1639",
"m%	c #E5051E",
"n%	c #7438C0",
"o%	c #7979FC",
"p%	c #AEAEFC",
"q%	c #C7A7DD",
"r%	c #D6264D",
"s%	c #F70107",
"t%	c #AD67B1",
"u%	c #8371E8",
"v%	c #D6244B",
"w%	c #DD1D3E",
"x%	c #CC1343",
"y%	c #B81C5F",
"z%	c #C5477B",
"A%	c #AD66B0",
"B%	c #908CF0",
"C%	c #FBFFFB",
". . . . . . . . . . . . . . . . . . . . . . . . . . . . . . . . . . . . . . . . . . . . . . . . ",
". . . . . + @ # . . . . . . . . . . . . . . . . . . . . . . . . . . . . . $ % & * = - ; . . . . ",
". . . . > , ' ) ! . . . . . . ~ ~ ~ ~ { { { { { { { { { { { ~ ~ ~ ~ . . ] ^ ' ' ' ' ' / ( . . . ",
". . . _ : ' ' ' < . . . . . . { { { { [ [ [ [ [ [ [ [ [ [ [ { { { { . _ } ' ' ' ' ' ' ' ' | . . ",
". . . 1 ' ' ' ' 2 _ . . ~ 3 3 4 [ [ [ 5 5 6 6 6 6 6 6 6 5 5 [ [ [ 4 3 7 ' ' / 8 9 0 a ' ' b c . ",
". . + d ' ' e ' ' f 3 3 3 4 4 4 5 6 6 g g h h h h h h h g i 6 6 5 4 j k ' ' l . . . m n ' ' o . ",
". . p ' ' q r ' ' s 3 4 4 [ 5 t u g h v w x y z A B C D E F G g H t I ' ' J K ~ . . . L ' ' M . ",
". . N ' ' L O ' ' P 4 Q t t u h h R S T U V W X Y X W Z `  ...+.@.h #.' ' $.4 { ~ ~ . _ %.' &.*.",
". *.2 ' e m =.' ' -.Q Q u ;.;.>.,.'.).!.~.{.].^././.(._.:.<.[.}.|.1.2.' ' 3.Q { { ~ . . 4.' ' 5.",
". 0 ' ' 6.. 7.' ' 8.Q g ;.9.0.a.b.c.d.d.e.f.g.h.i.i.j.h./.k.l.m.n.o.p.' ' q.Q Q { { ~ . r.' ' s.",
". t.' ' 1 3 u.' ' v.g ;.9.w.x.y.z.A.B.C.D.U E./.i.F.F.F.F.j.G.H.I.J.K.' ' L.i Q Q 4 { 3 M.N.O.. ",
". P.' ' Q.3 R.' ' S.g T.U.2 ' V.W.X.Y.Z.`. +Z .+F.++++++++++F.j.G.H.@+' ' #+g i Q Q 4 3 . . . . ",
"$+&.' / %+3 &+' ' *+9.=+-+' ' ' ;+>+,+'+)+!+C _.j.++~+~+~+++++++F.{+]+' ' ^+/+;.H t 4 3 ~ . . . ",
"(+' ' _+3 4 :+' ' <+[+}+' ' ' ' |+C.1+>+2+3+4+5+{+++~+~+~+++++F.j.h.6+' ' 7+8+9+0+t [ 4 3 . . . ",
"a+' ' b+c+4 d+' ' e+f+g+' ' ' ' h+B.i+j+1+k+l+m+G.++++~+++++j.n+o+p+q+' ' r+s+t+u+H 5 4 3 . . . ",
"v+w+' x+y+4 z+' ' A+B+C+' ' ' ' D+E+F+G+H+I+&.J+/.F.++++++j..+X Z K+L+' ' M+N+O+P+Q+t 4 4 3 . . ",
". . ! R+4 5 S+' ' T+U+V+' ' ' ' ' W+X+Y+Z+' ' &.`+F.++++i.(. @.@+@@@#@' ' $@%@&@*@=@H 5 4 3 . . ",
". . . 3 4 6 -@' ' ;@>@' ' ,@'@' ' )@V !@' ' ' ' ~@i.++F.n+Y {@d.1+]@^@' ' /@(@_@:@<@0+6 4 3 . . ",
". ~ 3 3 4 6 [@' ' }@|@' ' 1@2@' ' 3@4@5@' ' ' ' 6@i.++j.o+Z G+7@8@9@0@' ' a@b@c@d@e@f@6 4 3 3 ~ ",
". ~ { [ 5 g g@' ' h@i@' ' j@k@' ' l@m@n@' ' ' ' o@j.F.G.Y X+p@q@B.r@' ' ' s@.@t@N+u@v@i 5 [ { ~ ",
". ~ { [ 5 g w@' ' x@y@' ' z@A@' ' B@C@' ' D@' ' ) E@i..+F@F+G@7@H@I@' ' ' J@D K@L@M@N@i 5 [ { ~ ",
". ~ { [ 6 h O@' ' P@Q@' ' R@S@' ' T@U@' ' V@W@' ' X@{+g.Y@Z@`@ #.#+#&.' ' @#l+##$#%#&#Q+6 [ { ~ ",
". ~ { [ 6 h *#' ' =#&.' -#;#>#' ' ,#'#' ' )#!#' ' ~#n+:.{#]#`@H@Y@^#/#' ' (#!.A ^#_#{@Q+6 [ { ~ ",
". ~ { [ 6 h :#' ' <#' ' [#B.}#' ' |#1#' ' 2#3#' ' 4#5#{.6#B.B.F+_#7#8#' ' 9#0#a#^#b#Y@Q+6 [ { ~ ",
". ~ { [ 6 h c#' ' d#' ' e#f#' ' 2 g#' ' h#i#j#' ' k#l#m#n#o#p#q# @_.r#) ' s#t#K+u#b#Y@Q+6 [ { ~ ",
". ~ { [ 6 h v#' ' ' ' ' w#x#' ' y#z#' ' A#i+B#' ' C#p+D#E#`@p@F#Y l#^#G#' ' H#I#{.F@K+Q+6 [ { ~ ",
". ~ { [ 6 h J#' ' ' ' ' K#L#' ' M#N#' ' O#E#P#' ' Q#Y F#!+R#H@a#p+.+E.S#' ' T#X+U#%@V#Q+6 [ { ~ ",
". ~ { [ 6 h W#' ' ' ' ' X#Y#' ' Z#`#' '  $.$+$' ' @$#$#$#$#$#$_#k.^.X $$' ' %$&$%#*$}.Q+6 [ { ~ ",
". ~ { [ 5 g =$' ' ' ' ' -$;$' ' >$,$' ' '$)$!$' ' ~$#${${${$#$E./.n+7#` ]$' ' ^$/$($_$i 5 [ { ~ ",
". ~ { [ 5 i :$' ' ' ' <$]#[$' ' }$|$' ' 1$2$3$' ' 4$#${${${$#$5+h.h.p+5$6$' ' 7$8$9$0$i 5 [ { ~ ",
". . a$b$4 c$d$' ' ' ' e$E#f$' ' %.' ' >$Y g$h$' ' i$#${${${$#$j$j.{+].f.k$' ' l$m$n$f@6 4 3 . . ",
". . . 3 4 6 o$' ' ' ' p$!.q$' ' ' ' ' r$p+s$t$' ' u$#${${${$#$(.i.i.k.F@v$' ' w$x$y$i 6 4 3 . . ",
". . . 3 4 5 z$' ' ' ' A${@B$' ' ' ' ' C$l##$#$#$#$#$#${${${$#$#$#$#$#$#$D$s#' E$F$G$H 5 4 3 . . ",
". . . 3 4 4 H$' ' ' ' I$b#J$' ' ' ' ' K$5##${${${${${${${${${${${${${$#$K+L$#$#$#$#$#$4 4 3 . . ",
". . . . 3 4 M$' ' ' ' N$X O$' ' ' ' ' P$G.#${${${${${${${${${${${${${$#$%@Q$#${${${$#$4 3 . . . ",
". . . . 3 4 R$' ' ' S$T$U$V$' ' ' ' &.W$i.#${${${${${${${${${${${${${$#$%@X$#${${${$#$4 3 . . . ",
". . . . ~ 3 Y$' ' ' Z$`$f+ %' ' ' ' .%++F.#$#$#$#$#$#${${${$#$#$#$#$#$#$+%@%#${${${$#$3 ~ . . . ",
". . . . . 3 #%' ' ' $%9.%%&%' ' ' ' *%F.F.i.=%) ' 2 #${${${$#$G.-%;%>%,%'%' #${${${$#$3 . . . . ",
". . . . . 3 )%' ' ' !%g 9.~%' ' ' ' {%h.j.i.j.6+' ' #${${${$#$]%^%#$#$#$#$#$#${${${$#$#$#$#$#$#$",
". . . . . . /%' ' ' (%i ;._%' ' ' ' :%<%H./.h.[%' ' #${${${$#$}%s+#${${${${${${${${${${${${${$#$",
". . . . . . & ' ' |%1%Q H 2%3%' ' 4%5%6%$#7%].8%' ' #${${${$#$9%0%#${${${${${${${${${${${${${$#$",
". . . . . . & ' ' a%{ Q Q Q b%' ' c%d%e%f%%#b#g%' ' #$#$#$#$#$h%' #${${${${${${${${${${${${${$#$",
". . . . . . Q.i%i%j%3 4 4 [ k%l%m%n%Q+7@o%p%.@q%' ' ' ' ' ' ' ' ' #$#$#$#$#$#${${${$#$#$#$#$#$#$",
". . . . . . . . . . ~ ~ ~ 4 4 4 5 t t H H Q+Q+Q+r%' ' ' ' ' ' ' s%#%t%4 ~ ~ #${${${$#$. . . . . ",
". . . . . . . . . . . . ~ 3 3 4 4 4 4 5 5 6 6 6 u%v%w%w%x%y%z%A%B%4 3 3 ~ . #${${${$#$. . . . . ",
". . . . . . . . . . . . . . . 3 3 3 3 [ [ [ [ [ [ [ [ [ [ [ 3 3 3 3 . . . . #${${${$#$. . . . . ",
". . . . . . . . . . . . . . . . . . ~ { { { { { { { { { { { ~ . . . . . . . #${${${$#$. . . . . ",
". . . . . . . . . . . . . . . . . . ~ ~ ~ ~ ~ ~ ~ ~ ~ ~ ~ ~ ~ . . . . . . . #$#$#$C%#$. . . . . "};
