/* XPM */
static char * mspp16x16_xpm[] = {
"16 16 148 2",
"          c None",
".         c #FF0000",
"+         c #1A1AFF",
"@         c #4545FF",
"#         c #2727FF",
"$         c #1717FF",
"%         c #FB0004",
"&         c #2424FF",
"*         c #5B5BFE",
"=         c #8E8EFD",
"-         c #D3D3FD",
";         c #DDDDFD",
">         c #B9B9FD",
",         c #7878FB",
"'         c #A82177",
")         c #B80047",
"!         c #EA0015",
"~         c #EF0010",
"{         c #6631C9",
"]         c #AF5BAA",
"^         c #AA82D5",
"/         c #7171FD",
"(         c #D4D4FD",
"_         c #FBFBFD",
":         c #F9F9FD",
"<         c #E9E9FD",
"[         c #EA4E61",
"}         c #912693",
"|         c #0A0AFF",
"1         c #DC0022",
"2         c #BF75B3",
"3         c #FE0607",
"4         c #C12D6A",
"5         c #6262FD",
"6         c #AFAEFC",
"7         c #FCFCFD",
"8         c #FA5A5E",
"9         c #CC6B9B",
"0         c #4949FD",
"a         c #D30A36",
"b         c #EF6977",
"c         c #FE0202",
"d         c #DA2F54",
"e         c #BE7BBB",
"f         c #FA0E12",
"g         c #F9E6EA",
"h         c #F6F6FD",
"i         c #B8B8FD",
"j         c #CE3868",
"k         c #E07693",
"l         c #9292F9",
"m         c #2020FF",
"n         c #1B1BFF",
"o         c #DD1638",
"p         c #FC4244",
"q         c #EC1E2F",
"r         c #EE3C4D",
"s         c #F34E59",
"t         c #FE0102",
"u         c #FBB0B3",
"v         c #D9D9FD",
"w         c #7272FD",
"x         c #DA2146",
"y         c #D7547B",
"z         c #C0C0FB",
"A         c #4545FE",
"B         c #EF2535",
"C         c #FE1C1D",
"D         c #D02957",
"E         c #F84B51",
"F         c #FE191A",
"G         c #DA1D42",
"H         c #F99499",
"I         c #AEAEFD",
"J         c #9090FD",
"K         c #EE5869",
"L         c #D2426E",
"M         c #D0D0FD",
"N         c #8282FE",
"O         c #F02231",
"P         c #FF0202",
"Q         c #B83378",
"R         c #FD3E40",
"S         c #FA0E13",
"T         c #C43872",
"U         c #F37F8A",
"V         c #B3B3FD",
"W         c #E6A6BD",
"X         c #E91E33",
"Y         c #CBCBFD",
"Z         c #8484FE",
"`         c #E9162C",
" .        c #B24B97",
"..        c #FE1919",
"+.        c #F43540",
"@.        c #C4447E",
"#.        c #FC9295",
"$.        c #8080FF",
"%.        c #F5F5FE",
"&.        c #DEDAFA",
"*.        c #F70A12",
"=.        c #B8A0E3",
"-.        c #5656FD",
";.        c #E30925",
">.        c #EE1020",
",.        c #D26D99",
"'.        c #F7646C",
").        c #E4A8C3",
"!.        c #FCC5C8",
"~.        c #0000FF",
"{.        c #FCFCFE",
"].        c #F2F2FE",
"^.        c #E62C44",
"/.        c #9C52AF",
"(.        c #2F2FFF",
"_.        c #EA0116",
":.        c #E93246",
"<.        c #EF8593",
"[.        c #FB9496",
"}.        c #EAC6DA",
"|.        c #C2C2FF",
"1.        c #F4000A",
"2.        c #B92D73",
"3.        c #CD6696",
"4.        c #FAC2C4",
"5.        c #FCD5D7",
"6.        c #FFBFBF",
"7.        c #F8F8FE",
"8.        c #FCFCFF",
"9.        c #F4D9E3",
"0.        c #F6F6FF",
"a.        c #FFFFFF",
"b.        c #FE0001",
"c.        c #7A088C",
"d.        c #7F24A4",
"e.        c #F90309",
"f.        c #C7BFF2",
"g.        c #E9B6CA",
"h.        c #FF8080",
"i.        c #E2B8D2",
"j.        c #5E0CAD",
"k.        c #3838FF",
"l.        c #827EFA",
"m.        c #E40C27",
"n.        c #EE0112",
"o.        c #E0001E",
"p.        c #CDBAEC",
"q.        c #F9F9FF",
"                          .     ",
"  . .       + @ @ # $   %   .   ",
"  . .   & * = - ; > , ' )     . ",
". ! ~ { ] ^ / ( _ : < [ } |     ",
".   1 2 3 4 5 6 _ 7 : 8 9 0     ",
"    a b c d e f g h i j k l m   ",
"  n o p q r s t u v w x y z A   ",
"  @ B C D E F G H I J K L M N   ",
"  @ O P Q R S T U J V W X Y Z   ",
"  # ` t  ...+.@.#.$.%.&.*.=.-.  ",
"    ;.>.,.. '.).!.~.{.].^./.(.  ",
"    _.:.<.. [.$.~.~.~.$.}.$.|.  ",
"    1.2.3.. 4.5.6.~.7.8.9.~.0.a.",
"    b.c.d.e.f.g.h.$.i.$.~.~.~.$.",
"          j.k.l.m.n.o.p.q.~.a.a.",
"                        a.$.a.  "};
