/* XPM */
static char * checked_box_16x16_xpm[] = {
"16 16 6 1",
" 	c None",
".	c #606060",
"+	c #FF0000",
"@	c #CFCFCF",
"#	c #A9A9A9",
"$	c #D2D2D2",
"                ",
"                ",
"  ............  ",
"  .          ++ ",
"  . @######+++  ",
"  . $     +++.  ",
"  . $    +++ .  ",
"  . $++ +++# .  ",
"  . $+++++ # .  ",
"  . $ +++  # .  ",
"  . $      # .  ",
"  . $$$$$$$@ .  ",
"  .          .  ",
"  ............  ",
"                ",
"                "};
