/* XPM */
static char * delete_icon16x16_xpm[] = {
"16 16 29 1",
" 	c None",
".	c #100607",
"+	c #0E0506",
"@	c #110708",
"#	c #E9B7BB",
"$	c #67242A",
"%	c #773136",
"&	c #E8B0B5",
"*	c #ED4E5B",
"=	c #E50012",
"-	c #550006",
";	c #EC4956",
">	c #0F0506",
",	c #C35B63",
"'	c #EC4653",
")	c #E50517",
"!	c #000000",
"~	c #C14650",
"{	c #75181F",
"]	c #E60C1D",
"^	c #EB3D4A",
"/	c #EA3240",
"(	c #E71B2B",
"_	c #64050C",
":	c #964A50",
"<	c #853037",
"[	c #571015",
"}	c #A33B44",
"|	c #570A10",
"  .+        .+  ",
" @#$+      @#%+ ",
"@&*=-+    @#;=-+",
">,')=-+  @#;==-+",
" !~')=-+@#;==-+ ",
"  !~')={#;==-+  ",
"   !~')]^==-+   ",
"    !~'===-+    ",
"    @&/===-+    ",
"   @#;=(')=-+   ",
"  @#;==_~')=-+  ",
" @#;==-+>~')=-+ ",
".&*==-+  >~')=-+",
"+:')-+    >~')-+",
" +<[+      >}|+ ",
"  ++        ++  "};
