/* XPM */
static char * list_del_disabled16x16_xpm[] = {
"16 16 29 1",
" 	c #FFFFFF",
".	c #D0D0D0",
"+	c #0C0C0C",
"@	c #0A0A0A",
"#	c #0D0D0D",
"$	c #454545",
"%	c #545454",
"&	c #CCCCCC",
"*	c #9D9D9D",
"=	c #727272",
"-	c #2A2A2A",
";	c #9A9A9A",
">	c #0B0B0B",
",	c #8F8F8F",
"'	c #999999",
")	c #757575",
"!	c #000000",
"~	c #838383",
"{	c #464646",
"]	c #797979",
"^	c #949494",
"/	c #8E8E8E",
"(	c #818181",
"_	c #343434",
":	c #707070",
"<	c #5A5A5A",
"[	c #333333",
"}	c #6F6F6F",
"|	c #303030",
" .+@.      .+@. ",
".#.$@.    .#.%@.",
"#&*=-@.  .#.;=-@",
">,')=-@..#.;==-@",
".!~')=-@#.;==-@.",
" .!~')={.;==-@. ",
"  .!~')]^==-@.  ",
"   .!~'===-@.   ",
"   .#&/===-@.   ",
"  .#.;=(')=-@.  ",
" .#.;==_~')=-@. ",
".#.;==-@>~')=-@.",
"+&*==-@..>~')=-@",
"@:')-@.  .>~')-@",
".@<[@.    .>}|@.",
" .@@.      .@@. "};
