/* XPM */
static char * list_edit16x16_xpm[] = {
"16 16 31 1",
" 	c None",
".	c #0F0D09",
"+	c #3F3624",
"@	c #000000",
"#	c #020B03",
"$	c #8CA65A",
"%	c #FFD991",
"&	c #CFB076",
"*	c #22972E",
"=	c #44BD44",
"-	c #F1D78B",
";	c #9F875A",
">	c #2ABA39",
",	c #27B438",
"'	c #458F4B",
")	c #DFCB85",
"!	c #AF9564",
"~	c #077834",
"{	c #006933",
"]	c #005529",
"^	c #000603",
"/	c #64AA4C",
"(	c #1F1A12",
"_	c #B0CD70",
":	c #F6D08A",
"<	c #618F4C",
"[	c #0A5D2F",
"}	c #C49E64",
"|	c #C39F66",
"1	c #887048",
"2	c #31281A",
"                ",
"           .+@  ",
"          #$%&. ",
"         #*=-%;@",
"        #*>,')!@",
"       #*>,~{]^ ",
"      #*>,~{]^  ",
"     #*>,~{]^   ",
"    #*>,~{]^    ",
"   #*>,~{]^     ",
"  #*>,~{]^      ",
" @/>,~{]^       ",
" (_,~{]^        ",
"@;:<{[^         ",
"@@}|1@          ",
"@@2@            "};
