/* XPM */
static char * list_color16x16_xpm[] = {
"16 16 79 1",
" 	c None",
".	c #5A300E",
"+	c #46210C",
"@	c #4D270D",
"#	c #663C15",
"$	c #4D270F",
"%	c #634128",
"&	c #50290C",
"*	c #562D0C",
"=	c #9D6513",
"-	c #A97549",
";	c #1C14E5",
">	c #BC8C5F",
",	c #EAB247",
"'	c #866034",
")	c #653E1C",
"!	c #4B250C",
"~	c #89530A",
"{	c #E1960F",
"]	c #E29B18",
"^	c #1C13E4",
"/	c #0000FF",
"(	c #1C15E7",
"_	c #ECB956",
":	c #67401D",
"<	c #53280A",
"[	c #844E08",
"}	c #DF9307",
"|	c #B9824C",
"1	c #B88D48",
"2	c #5E3B23",
"3	c #4A210B",
"4	c #B06F05",
"5	c #EBA219",
"6	c #E6A52D",
"7	c #E8AC3A",
"8	c #EFC165",
"9	c #7E5E3F",
"0	c #F4D185",
"a	c #F7DA97",
"b	c #4F240A",
"c	c #925807",
"d	c #E78513",
"e	c #FC3304",
"f	c #EB8D25",
"g	c #DCB367",
"h	c #E4CC96",
"i	c #49220D",
"j	c #7F4908",
"k	c #FB3203",
"l	c #FF2400",
"m	c #FC3405",
"n	c #BEAD46",
"o	c #1D9C46",
"p	c #C2B95F",
"q	c #F2C874",
"r	c #93744F",
"s	c #4B230D",
"t	c #4E270B",
"u	c #49220C",
"v	c #D58C07",
"w	c #1C9B44",
"x	c #009844",
"y	c #1D9D48",
"z	c #E2C386",
"A	c #4D250E",
"B	c #4C240E",
"C	c #51270B",
"D	c #D78F0F",
"E	c #E4A022",
"F	c #D4B16F",
"G	c #48210C",
"H	c #4A220B",
"I	c #75450F",
"J	c #BF821D",
"K	c #AD8242",
"L	c #653D1D",
"M	c #4C210A",
"N	c #4B210B",
"                ",
"                ",
"    .+@#$+%     ",
"  &*=-;>,')     ",
" !~{]^/(,_:     ",
"<[}{]|;>,_1:++2 ",
"34}{]567,_890a9%",
"bc}{def7,_8g0ahi",
"3j}{klm7nopq0ars",
"tuv{def7wxyq0zAB",
" +CD]E67nopqFAG ",
" 3+HIJ67,_KLGG  ",
"  M+++++++++3   ",
"    MM+++NM     ",
"                ",
"                "};
