/* XPM */
static char * list_add16x16_xpm[] = {
"16 16 14 1",
" 	c None",
".	c #000000",
"+	c #1F1F1F",
"@	c #EFEFEF",
"#	c #CFCFCF",
"$	c #FFCFCF",
"%	c #8F8F8F",
"&	c #FFEFEF",
"*	c #FF1F1F",
"=	c #FFFFFF",
"-	c #FF4F4F",
";	c #FF0000",
">	c #FF8F8F",
",	c #3F3F3F",
".............   ",
".............   ",
".............   ",
"                ",
"...+@@+......   ",
"...#$$#......   ",
"..%&**&%.....   ",
"  =-;;-=        ",
" =>;;;;>=       ",
" ===;;===       ",
"  ,=;;==........",
"  .=;;;;=======.",
"  .=;;;;=======.",
"  .============.",
"  .============.",
"  .............."};
