/* XPM */
static char * item_edit_disabled16x16_xpm[] = {
"16 16 38 1",
" 	c #FFFFFF",
".	c #E0E0E0",
"+	c #C0C0C0",
"@	c #F0F0F0",
"#	c #A0A0A0",
"$	c #0C0C0C",
"%	c #313131",
"&	c #101010",
"*	c #B0B0B0",
"=	c #060606",
"-	c #808080",
";	c #C8C8C8",
">	c #A2A2A2",
",	c #D0D0D0",
"'	c #5C5C5C",
")	c #BEBEBE",
"!	c #7C7C7C",
"~	c #505050",
"{	c #727272",
"]	c #6D6D6D",
"^	c #6A6A6A",
"/	c #B2B2B2",
"(	c #898989",
"_	c #404040",
":	c #3F3F3F",
"<	c #343434",
"[	c #2A2A2A",
"}	c #030303",
"|	c #202020",
"1	c #7B7B7B",
"2	c #181818",
"3	c #9E9E9E",
"4	c #333333",
"5	c #000000",
"6	c #949494",
"7	c #686868",
"8	c #252525",
"9	c #303030",
"           .+@  ",
"@         #$%&* ",
"         #=-;>$,",
"        #='-);!~",
"       #='{]^/(_",
"      #='{]:<[}*",
"     #='{]:<[}# ",
"    #='{]:<[}#  ",
"   #='{]:<[}#   ",
"  #='{]:<[}#    ",
" *='{]:<[}#     ",
" |1{]:<[}#      ",
"+23]:<[}#       ",
"_!+]<4}#        ",
"55667&#         ",
"5589#@          "};
