/* XPM */
static char * list_down_disabled16x16_xpm[] = {
"16 16 24 1",
" 	c #FFFFFF",
".	c #101010",
"+	c #000000",
"@	c #E4E4E4",
"#	c #BABABA",
"$	c #DBDBDB",
"%	c #EFEFEF",
"&	c #E7E7E7",
"*	c #D4D4D4",
"=	c #C1C1C1",
"-	c #AEAEAE",
";	c #8E8E8E",
">	c #9B9B9B",
",	c #868686",
"'	c #535353",
")	c #D0D0D0",
"!	c #343434",
"~	c #878787",
"{	c #2C2C2C",
"]	c #747474",
"^	c #252525",
"/	c #616161",
"(	c #212121",
"_	c #585858",
"    .++++++.    ",
"    +@#####+    ",
"    +@$$$$$+    ",
"    +@%%%%%+    ",
"    +@&&&&&+    ",
"    +@*****+    ",
"    +@=====+    ",
".++++@-----++++.",
".;@@@@>>>>>,,,'.",
").!~~~~~~~~~~!.)",
" ).{]]]]]]]]{.) ",
"  ).^//////^.)  ",
"   ).(____(.)   ",
"    ).(__(.)    ",
"     ).((.)     ",
"      )..)      "};
