/* XPM */
static char * list_up16x16_xpm[] = {
"16 16 33 1",
" 	c None",
".	c #000000",
"+	c #7F8A95",
"@	c #424C56",
"#	c #868E97",
"$	c #D3E2F1",
"%	c #D2E1F1",
"&	c #51565B",
"*	c #868F97",
"=	c #E6EEF7",
"-	c #E9F0F8",
";	c #575A5D",
">	c #858E97",
",	c #D5E3F2",
"'	c #D7E4F3",
")	c #4E545A",
"!	c #C3D7EC",
"~	c #BCD2EA",
"{	c #444D57",
"]	c #BDD3EA",
"^	c #A0BFE1",
"/	c #3A4653",
"(	c #2C527B",
"_	c #4784C6",
":	c #84ADD9",
"<	c #D6E4F2",
"[	c #699AD0",
"}	c #4D88C8",
"|	c #3175BF",
"1	c #1662B7",
"2	c #0154B0",
"3	c #0054B0",
"4	c #35393C",
"       ..       ",
"      .+@.      ",
"     .#$%&.     ",
"    .*=---;.    ",
"   .>,''''').   ",
"  .>!~~~~~~~{.  ",
" .>]^^^^^^^^^/. ",
".(____:::::___(.",
".....<[[[[[.....",
"    .<}}}}}.    ",
"    .<|||||.    ",
"    .<11111.    ",
"    .<22222.    ",
"    .<33333.    ",
"    .<33333.    ",
"    .4......    "};
