/* XPM */
static char * list_up_disabled16x16_xpm[] = {
"16 16 30 1",
" 	c #FFFFFF",
".	c #D0D0D0",
"+	c #101010",
"@	c #8A8A8A",
"#	c #4C4C4C",
"$	c #8E8E8E",
"%	c #E2E2E2",
"&	c #E1E1E1",
"*	c #565656",
"=	c #EEEEEE",
"-	c #F0F0F0",
";	c #5A5A5A",
">	c #E3E3E3",
",	c #E5E5E5",
"'	c #545454",
")	c #D7D7D7",
"!	c #D3D3D3",
"~	c #4D4D4D",
"{	c #C0C0C0",
"]	c #464646",
"^	c #535353",
"/	c #868686",
"(	c #AEAEAE",
"_	c #000000",
":	c #E4E4E4",
"<	c #9C9C9C",
"[	c #787878",
"}	c #666666",
"|	c #585858",
"1	c #383838",
"      .++.      ",
"     .+@#+.     ",
"    .+$%&*+.    ",
"   .+$=---;+.   ",
"  .+$>,,,,,'+.  ",
" .+$)!!!!!!!~+. ",
".+$!{{{{{{{{{]+.",
"+^////(((((///^+",
"+____:<<<<<____+",
"    _:@@@@@_    ",
"    _:[[[[[_    ",
"    _:}}}}}_    ",
"    _:|||||_    ",
"    _:|||||_    ",
"    _:|||||_    ",
"    +1_____+    "};
