/* XPM */
static char * list_down16x16_xpm[] = {
"16 16 22 1",
" 	c None",
".	c #000000",
"+	c #D6E4F2",
"@	c #96B8DE",
"#	c #C8DAEE",
"$	c #E7EFF7",
"%	c #DBE7F4",
"&	c #BED3EA",
"*	c #A1C0E1",
"=	c #84ACD8",
"-	c #858E97",
";	c #6698D0",
">	c #4784C6",
",	c #2C527B",
"'	c #1D334B",
")	c #4985C6",
"!	c #122C47",
"~	c #2C71BD",
"{	c #072444",
"]	c #0F5EB4",
"^	c #001F42",
"/	c #0054B0",
"    ........    ",
"    .+@@@@@.    ",
"    .+#####.    ",
"    .+$$$$$.    ",
"    .+%%%%%.    ",
"    .+&&&&&.    ",
"    .+*****.    ",
".....+=====.....",
".-++++;;;;;>>>,.",
" .'))))))))))'. ",
"  .!~~~~~~~~!.  ",
"   .{]]]]]]{.   ",
"    .^////^.    ",
"     .^//^.     ",
"      .^^.      ",
"       ..       "};
