/* XPM */
static char * noimage_xpm[] = {
"128 32 187 2",
"  	c None",
". 	c #FFFFFF",
"+ 	c #C0C0C0",
"@ 	c #1F1F1F",
"# 	c #171717",
"$ 	c #252525",
"% 	c #ADADAD",
"& 	c #8C8C8C",
"* 	c #131313",
"= 	c #292929",
"- 	c #9C9C9C",
"; 	c #0D0D0D",
"> 	c #101010",
", 	c #BCBCBC",
"' 	c #848484",
") 	c #000000",
"! 	c #0E0E0E",
"~ 	c #ECECEC",
"{ 	c #6F6F6F",
"] 	c #030303",
"^ 	c #838383",
"/ 	c #A7A7A7",
"( 	c #727272",
"_ 	c #020202",
": 	c #202020",
"< 	c #070707",
"[ 	c #E2E2E2",
"} 	c #EBEBEB",
"| 	c #A0A0A0",
"1 	c #7B7B7B",
"2 	c #797979",
"3 	c #9B9B9B",
"4 	c #E6E6E6",
"5 	c #D3D3D3",
"6 	c #A2A2A2",
"7 	c #D1D1D1",
"8 	c #C6C6C6",
"9 	c #7D7D7D",
"0 	c #C8C8C8",
"a 	c #DFDFDF",
"b 	c #878787",
"c 	c #787878",
"d 	c #ACACAC",
"e 	c #FDFDFD",
"f 	c #F0F0F0",
"g 	c #AAAAAA",
"h 	c #747474",
"i 	c #888888",
"j 	c #FAFAFA",
"k 	c #B1B1B1",
"l 	c #858585",
"m 	c #AFAFAF",
"n 	c #BFBFBF",
"o 	c #E1E1E1",
"p 	c #949494",
"q 	c #767676",
"r 	c #828282",
"s 	c #BDBDBD",
"t 	c #616161",
"u 	c #9A9A9A",
"v 	c #0C0C0C",
"w 	c #8E8E8E",
"x 	c #5C5C5C",
"y 	c #545454",
"z 	c #666666",
"A 	c #9D9D9D",
"B 	c #505050",
"C 	c #0A0A0A",
"D 	c #606060",
"E 	c #DDDDDD",
"F 	c #242424",
"G 	c #8D8D8D",
"H 	c #060606",
"I 	c #424242",
"J 	c #F1F1F1",
"K 	c #151515",
"L 	c #D6D6D6",
"M 	c #B3B3B3",
"N 	c #0F0F0F",
"O 	c #555555",
"P 	c #B8B8B8",
"Q 	c #5B5B5B",
"R 	c #282828",
"S 	c #010101",
"T 	c #BABABA",
"U 	c #3D3D3D",
"V 	c #1C1C1C",
"W 	c #C1C1C1",
"X 	c #454545",
"Y 	c #191919",
"Z 	c #929292",
"` 	c #7E7E7E",
" .	c #1E1E1E",
"..	c #B0B0B0",
"+.	c #494949",
"@.	c #676767",
"#.	c #515151",
"$.	c #303030",
"%.	c #D7D7D7",
"&.	c #B5B5B5",
"*.	c #F2F2F2",
"=.	c #474747",
"-.	c #1B1B1B",
";.	c #C2C2C2",
">.	c #D2D2D2",
",.	c #898989",
"'.	c #F8F8F8",
").	c #6A6A6A",
"!.	c #313131",
"~.	c #343434",
"{.	c #2A2A2A",
"].	c #FCFCFC",
"^.	c #EFEFEF",
"/.	c #CCCCCC",
"(.	c #707070",
"_.	c #1D1D1D",
":.	c #E8E8E8",
"<.	c #969696",
"[.	c #A4A4A4",
"}.	c #DEDEDE",
"|.	c #696969",
"1.	c #7C7C7C",
"2.	c #F5F5F5",
"3.	c #9E9E9E",
"4.	c #EEEEEE",
"5.	c #535353",
"6.	c #CBCBCB",
"7.	c #717171",
"8.	c #4C4C4C",
"9.	c #737373",
"0.	c #CFCFCF",
"a.	c #6B6B6B",
"b.	c #3F3F3F",
"c.	c #F9F9F9",
"d.	c #9F9F9F",
"e.	c #ABABAB",
"f.	c #E7E7E7",
"g.	c #181818",
"h.	c #6D6D6D",
"i.	c #4B4B4B",
"j.	c #393939",
"k.	c #FEFEFE",
"l.	c #444444",
"m.	c #373737",
"n.	c #777777",
"o.	c #FBFBFB",
"p.	c #AEAEAE",
"q.	c #EDEDED",
"r.	c #363636",
"s.	c #F7F7F7",
"t.	c #2B2B2B",
"u.	c #D8D8D8",
"v.	c #DBDBDB",
"w.	c #E0E0E0",
"x.	c #A9A9A9",
"y.	c #808080",
"z.	c #CDCDCD",
"A.	c #868686",
"B.	c #A8A8A8",
"C.	c #D5D5D5",
"D.	c #B7B7B7",
"E.	c #F3F3F3",
"F.	c #161616",
"G.	c #434343",
"H.	c #353535",
"I.	c #E3E3E3",
"J.	c #232323",
"K.	c #141414",
"L.	c #414141",
"M.	c #8F8F8F",
"N.	c #080808",
"O.	c #F4F4F4",
"P.	c #656565",
"Q.	c #050505",
"R.	c #B6B6B6",
"S.	c #C4C4C4",
"T.	c #4A4A4A",
"U.	c #636363",
"V.	c #575757",
"W.	c #B4B4B4",
"X.	c #272727",
"Y.	c #999999",
"Z.	c #F6F6F6",
"`.	c #C7C7C7",
" +	c #090909",
".+	c #595959",
"++	c #3C3C3C",
". . . . . . . . . . . . . . . . . . . . . . . . . . . . . . . . . . . . . . . . . . . . . . . . . . . . . . . . . . . . . . . . . . . . . . . . . . . . . . . . . . . . . . . . . . . . . . . . . . . . . . . . . . . . . . . . . . . . . . . . . . . . . . . . ",
". . . . . . . . . . . . . . . . . . . . . . . . . . . . . . . . . . . . . . . . . . . . . . . . . . . . . . . . . . . . . . . . . . . . . . . . . . . . . . . . . . . . . . . . . . . . . . . . . . . . . . . . . . . . . . . . . . . . . . . . . . . . . . . . ",
". . . . . . . . . . . . . . . . . . . . . . . . . . . . . . . . . . . . . . . . . . . . . . . . . . . . . . . . . . . . . . . . . . . . . . . . . . . . . . . . . . . . . . . . . . . . . . . . . . . . . . . . . . . . . . . . . . . . . . . . . . . . . . . . ",
". . . . . . . . . . . . . . . . . . . . . . . . . . . . . . . . . . . . . . . . . . . . . . . . . . . . . . . . . . . . . . . . . . . . . . . . . . . . . . . . . . . . . . . . . . . . . . . . . . . . . . . . . . . . . . . . . . . . . . . . . . . . . . . . ",
". . . . . . . . . . . . . . . . . . . . . . . . . . . . . . . . . . . . . . . . . . . . . . . . . . . . . . . . . . . . . . . . . . . . . . . . . . . . . . . . . . . . . . . . . . . . . . . . . . . . . . . . . . . . . . . . . . . . . . . . . . . . . . . . ",
". . . . . . . . . . . . . . . . . . . . . . . . . . . . . . . . . . . . . . . . . . . . . . . . . . . . . . . . . . . . . . . . . . . . . . . . . . . . . . . . . . . . . . . . . . . . . . . . . . . . . . . . . . . . . . . . . . . . . . . . . . . . . . . . ",
". . . . . . . . . . . . . . . . . . . . . . . . . . . . . . . . . . . . . . . . . . . . . . . . . . . . . . . . . . . . . . . . . . . . . . . . . . . . . . . . . . . . . . . . . . . . . . . . . . . . . . . . . . . . . . . . . . . . . . . . . . . . . . . . ",
". . . . . . . . . . . . . . . . . . . . . . . . . . . . . . . . . . . . . . . . . . . . . . . . . . . . . . . . . . . . . . . . . . . . . . . . . . . . . . . . . . . . . . . . . . . . . . . . . . . . . . . . . . . . . . . . . . . . . . . . . . . . . . . . ",
". . . . . . . . . . . . . . . + @ # $ % . . . . & * = . . . . . . . . . . . . . . . . . . . - ; > , . . . . . . . . . . . . . . . . . . . . . . . . . . . . . . . . . . . . . . . . . . . . . . . . . . . . . . . . . . . . . . . . . . . . . . . . . . . . . . ",
". . . . . . . . . . . . . . . ' ) ) ) ! ~ . . . { ) ] . . . . . . . . . . . . . . . . . . . ^ ) ) / . . . . . . . . . . . . . . . . . . . . . . . . . . . . . . . . . . . . . . . . . . . . . . . . . . . . . . . . . . . . . . . . . . . . . . . . . . . . . . ",
". . . . . . . . . . . . . . . ^ ) ) ) ) ( . . . { ) ] . . . . . . . . . . . . . . . . . . . ^ ) ) / . . . . . . . . . . . . . . . . . . . . . . . . . . . . . . . . . . . . . . . . . . . . . . . . . . . . . . . . . . . . . . . . . . . . . . . . . . . . . . ",
". . . . . . . . . . . . . . . ^ ) _ : ) < [ . . { ) ] . . . . } | 1 2 3 4 . . . . . . . . . ^ ) ) / . . 5 6 7 . 8 9 9 0 . . a b c d e . . . . f g 9 h i 8 . . . . . j k ^ l / m m n . . . o p q r s . . . . . . . . . . . . . . . . . . . . . . . . . . . . . . ",
". . . . . . . . . . . . . . . ^ ) ) l ) ) t . . { ) ] . . . u v ) ) ) ) < w . . . . . . . . ^ ) ) / . . x ) y z ) ) ) ) p A < ) ) ) B . . . | C ) ) ) ) ) D . . . E F ) ) ) ) ) ) C . . G H ) ) ) ) I J . . . . . . . . . . . . . . . . . . . . . . . . . . . . ",
". . . . . . . . . . . . . . . ^ ) ) 4 K ) ] L . { ) ] . . M ) ) N x O < ) ) P . . . . . . . ^ ) ) / . . Q ) ] ) > @ ) ) H ) H R S ) ) T . . B ) U c c V ) ) W . . X ) Y Z ` < )  .x . ..) ) +.- { S ) @.. . . . . . . . . . . . . . . . . . . . . . . . . . . . ",
". . . . . . . . . . . . . . . ^ ) ) f w ) ) #.. { ) ] . . $.) H %.. . &.) ) +.. . . . . . . ^ ) ) / . . Q ) ) X *.e =.) ) -.L . & ) ) 9 . . ;.>.. . . , ) ) ,.. '._ ) | . . ).) !.. . ~.) {.].. . Q ) C j . . . . . . . . . . . . . . . . . . . . . . . . . . . ",
". . . . . . . . . . . . . . . ^ ) ) ^.'. .) ) /.(.) ] . } ) ) +.. . . . _.) ! . . . . . . . ^ ) ) / . . Q ) ) :.. . <.) ) [.. . }.) ) |.. . . . . *.o , ) ) 1.. 2.) ) 3.. . |.) R . 4.S ) 5.6.6.6.7.) ) %.. . . . . . . . . . . . . . . . . . . . . . . . . . . ",
". . . . . . . . . . . . . . . ^ ) ) ^.. 3.) ) 8.9.) ] . 0.) ) a.. . . . b.) ) c.. . . . . . ^ ) ) / . . Q ) ) ^.. . d.) ) e.. . f.) ) @.. . *.9. .) ) ) ) ) 1 . . U ) g.i 1.H ) h.. 5 ) ) ) ) ) ) ) ) ) 0.. . . . . . . . . . . . . . . . . . . . . . . . . . . ",
". . . . . . . . . . . . . . . ^ ) ) ^.. ].{.) ) i.) ] . 0.) ) z . . . . j.) ] k.. . . . . . ^ ) ) / . . Q ) ) ^.. . d.) ) e.. . f.) ) @.. . b.) S l.a.D ) ) 1 . . 2 ) ) ) ) ) m.4.. 5 ) ) ~.n.n.n.n.n.l o.. . . . . . . . . . . . . . . . . . . . . . . . . . . ",
". . . . . . . . . . . . . . . ^ ) ) ^.. . p.) ) _ ) ] . q.) ) r.. . . s.! ) t.. . . . . . . ^ ) ) / . . Q ) ) ^.. . d.) ) e.. . f.) ) @.. u.) ) ( . . v.) ) 1 . w.] ) x.w w s e . . ^.S ) 5.. . . . . . . . . . . . . . . . . . . . . . . . . . . . . . . . . . ",
". . . . . . . . . . . . . . . ^ ) ) ^.. . . m.) ) ) ] . . ~.) ) 3.k.'.|.) ) y.. . . . . . . ^ ) ) / . . Q ) ) ^.. . d.) ) e.. . f.) ) @.. z.) ) n.. . A.) ) 1 . s ) ) @.d.B.M C.. . . ~.) < n . . . 7 D.. . . . . . . . . . . . . . . . . . . . . . . . . . . . ",
". . . . . . . . . . . . . . . ^ ) ) ^.. . . n ) ) ) ] . . , _ ) ) ; < ) ) R E.. . . . . . . ^ ) ) / . . Q ) ) ^.. . d.) ) e.. . f.) ) @.. '.F.) _ G.$.) S ) 1 . '.H.) ) ) ) ) ) ~.I.. P S ) ) J.$.K.) L.. . . . . . . . . . . . . . . . . . . . . . . . . . . . ",
". . . . . . . . . . . . . . . M.) N.O.. . . . (._ ) H.. . . P {.) ) ) H Q } . . . . . . . . M.) ) M . . P.) Q.E.. . x.) ) R.. . ~ ] ) 7.. . S.@ ) ) < n.T.) ^ . ~ R ) H.).U.!.) ) V.. . W.X.) ) ) ) -.Y.. . . . . . . . . . . . . . . . . . . . . . . . . . . . ",
". . . . . . . . . . . . . . . . E.j . . . . . . k.].. . . . . . o 8 z.O.. . . . . . . . . . . 2.Z.. . . k.J c.. . . . O.2.. . . . '.J . . . . ].>.`.f . ].J k.. ( )  +J . . e g.) {.. . . . [ 8 8 I.. . . . . . . . . . . . . . . . . . . . . . . . . . . . . . ",
". . . . . . . . . . . . . . . . . . . . . . . . . . . . . . . . . . . . . . . . . . . . . . . . . . . . . . . . . . . . . . . . . . . . . . . . . . . . . . . . 5.) Q.8 . k.k ] ) V.. . . . . . . . . . . . . . . . . . . . . . . . . . . . . . . . . . . . . . ",
". . . . . . . . . . . . . . . . . . . . . . . . . . . . . . . . . . . . . . . . . . . . . . . . . . . . . . . . . . . . . . . . . . . . . . . . . . . . . . . . e.S ) ) C C ) ) -.E . . . . . . . . . . . . . . . . . . . . . . . . . . . . . . . . . . . . . . ",
". . . . . . . . . . . . . . . . . . . . . . . . . . . . . . . . . . . . . . . . . . . . . . . . . . . . . . . . . . . . . . . . . . . . . . . . . . . . . . . . . + .+= g.V ++r 4.. . . . . . . . . . . . . . . . . . . . . . . . . . . . . . . . . . . . . . . ",
". . . . . . . . . . . . . . . . . . . . . . . . . . . . . . . . . . . . . . . . . . . . . . . . . . . . . . . . . . . . . . . . . . . . . . . . . . . . . . . . . . . . . . . . . . . . . . . . . . . . . . . . . . . . . . . . . . . . . . . . . . . . . . . . ",
". . . . . . . . . . . . . . . . . . . . . . . . . . . . . . . . . . . . . . . . . . . . . . . . . . . . . . . . . . . . . . . . . . . . . . . . . . . . . . . . . . . . . . . . . . . . . . . . . . . . . . . . . . . . . . . . . . . . . . . . . . . . . . . . ",
". . . . . . . . . . . . . . . . . . . . . . . . . . . . . . . . . . . . . . . . . . . . . . . . . . . . . . . . . . . . . . . . . . . . . . . . . . . . . . . . . . . . . . . . . . . . . . . . . . . . . . . . . . . . . . . . . . . . . . . . . . . . . . . . ",
". . . . . . . . . . . . . . . . . . . . . . . . . . . . . . . . . . . . . . . . . . . . . . . . . . . . . . . . . . . . . . . . . . . . . . . . . . . . . . . . . . . . . . . . . . . . . . . . . . . . . . . . . . . . . . . . . . . . . . . . . . . . . . . . ",
". . . . . . . . . . . . . . . . . . . . . . . . . . . . . . . . . . . . . . . . . . . . . . . . . . . . . . . . . . . . . . . . . . . . . . . . . . . . . . . . . . . . . . . . . . . . . . . . . . . . . . . . . . . . . . . . . . . . . . . . . . . . . . . . ",
". . . . . . . . . . . . . . . . . . . . . . . . . . . . . . . . . . . . . . . . . . . . . . . . . . . . . . . . . . . . . . . . . . . . . . . . . . . . . . . . . . . . . . . . . . . . . . . . . . . . . . . . . . . . . . . . . . . . . . . . . . . . . . . . "};
