/* XPM */
static char * setting_color_disabled16x16_xpm[] = {
"16 16 68 1",
" 	c #FFFFFF",
".	c #E4E4E4",
"+	c #C9C9C9",
"@	c #AEAEAE",
"#	c #5F5F5F",
"$	c #292929",
"%	c #303030",
"&	c #494949",
"*	c #313131",
"=	c #747474",
"-	c #D7D7D7",
";	c #484848",
">	c #343434",
",	c #585858",
"'	c #797979",
")	c #7C7C7C",
"!	c #8D8D8D",
"~	c #989898",
"{	c #5D5D5D",
"]	c #404040",
"^	c #787878",
"/	c #7D7D7D",
"(	c #7B7B7B",
"_	c #7F7F7F",
":	c #7E7E7E",
"<	c #A1A1A1",
"[	c #4E4E4E",
"}	c #464646",
"|	c #737373",
"1	c #828282",
"2	c #858585",
"3	c #444444",
"4	c #414141",
"5	c #2A2A2A",
"6	c #5A5A5A",
"7	c #898989",
"8	c #919191",
"9	c #AAAAAA",
"0	c #5E5E5E",
"a	c #BCBCBC",
"b	c #C7C7C7",
"c	c #2E2E2E",
"d	c #4C4C4C",
"e	c #808080",
"f	c #888888",
"g	c #BDBDBD",
"h	c #2C2C2C",
"i	c #434343",
"j	c #5C5C5C",
"k	c #909090",
"l	c #B3B3B3",
"m	c #717171",
"n	c #424242",
"o	c #6E6E6E",
"p	c #5B5B5B",
"q	c #B4B4B4",
"r	c #2D2D2D",
"s	c #525252",
"t	c #CDCDCD",
"u	c #838383",
"v	c #2B2B2B",
"w	c #F2F2F2",
"x	c #6C6C6C",
"y	c #777777",
"z	c #CCCCCC",
"A	c #767676",
"B	c #3E3E3E",
"C	c #666666",
"                ",
"      .++       ",
"   @#$%&*$=     ",
" -;>,')!~{]+    ",
"-%&^/(_:~<[   + ",
";}|^/1)!~<23$$4-",
"56|^/178~<90ab0=",
"cd|^/ef8~<9<abgh",
"5i|^__e81jklabmc",
"n5o^/ef8pd{laqrs",
"t$c|/u781jkl<rvw",
" x$5no78~<y45hz ",
"  A$$$$$$$$$B-  ",
"   -A;$$$BCa    ",
"    .++++.      ",
"                "};
