/* XPM */
static char * switch_button_on_16x16_xpm[] = {
"16 16 88 1",
" 	c None",
".	c #333333",
"+	c #7D7D7D",
"@	c #BBBBBB",
"#	c #C7C8C8",
"$	c #565757",
"%	c #CFD0D0",
"&	c #F4F5F5",
"*	c #555555",
"=	c #E1E2E2",
"-	c #EDEEEE",
";	c #EEEEEE",
">	c #C4C4C4",
",	c #E6E6E6",
"'	c #E8E8E8",
")	c #EAEAEA",
"!	c #E8E9E9",
"~	c #E7E7E7",
"{	c #E9E9E9",
"]	c #727272",
"^	c #DDDDDD",
"/	c #DFDFDF",
"(	c #C9C9C9",
"_	c #C1C1C1",
":	c #E2E2E2",
"<	c #E0E0E0",
"[	c #E5E5E5",
"}	c #BABABA",
"|	c #D6D6D6",
"1	c #E3E3E3",
"2	c #A0A0A0",
"3	c #D3D3D3",
"4	c #D7D7D7",
"5	c #858585",
"6	c #3D3D3D",
"7	c #B5B5B5",
"8	c #AFAFAF",
"9	c #757575",
"0	c #DCDCDC",
"a	c #A2A3A3",
"b	c #C8C8C8",
"c	c #CCCCCC",
"d	c #B2B2B2",
"e	c #616161",
"f	c #F0F0F0",
"g	c #D2D2D2",
"h	c #A3A3A3",
"i	c #BDBCBC",
"j	c #BEBEBE",
"k	c #CAC9C9",
"l	c #EBEBEB",
"m	c #D8D8D8",
"n	c #C2C1C1",
"o	c #9A9A9A",
"p	c #898989",
"q	c #B0B0B0",
"r	c #B4B4B4",
"s	c #B9B9B9",
"t	c #B1B1B1",
"u	c #5D5D5D",
"v	c #A4A3A3",
"w	c #AAAAAA",
"x	c #E1E1E1",
"y	c #FBFBFB",
"z	c #CFCFCF",
"A	c #A5A5A5",
"B	c #848383",
"C	c #969595",
"D	c #979696",
"E	c #9D9C9C",
"F	c #A9A9A9",
"G	c #ADACAC",
"H	c #A2A1A1",
"I	c #999898",
"J	c #434343",
"K	c #838282",
"L	c #888787",
"M	c #898787",
"N	c #8B8989",
"O	c #8C8A8A",
"P	c #898888",
"Q	c #414040",
"R	c #6D6C6C",
"S	c #797878",
"T	c #494949",
"U	c #5A5959",
"V	c #5E5D5D",
"W	c #616060",
"     ......     ",
"   ..+@##@+..   ",
"  .$%&&&&&&%$.  ",
" .*=-;-----;=*. ",
" .>,')!,,~{)~>. ",
".]^/(_;:<[}|1^].",
".234567;'869032.",
".abc1567d6efg(a.",
".hijkl566efmnio.",
".pqqrb{5ef4stqp.",
".uhhvwjxyzqAhhu.",
" .BCCDEFGHICCB. ",
" .JKLLMNOPLLKJ. ",
"  .QRSSSSSSRQ.  ",
"   ..TUVWUT..   ",
"     ......     "};
