/* XPM */
static char * switch_button_off_16x16_xpm[] = {
"16 16 90 1",
" 	c None",
".	c #333333",
"+	c #7D7D7D",
"@	c #BBBBBB",
"#	c #C7C8C8",
"$	c #565757",
"%	c #CFD0D0",
"&	c #F4F5F5",
"*	c #555555",
"=	c #E1E2E2",
"-	c #EDEEEE",
";	c #EEEEEE",
">	c #C4C4C4",
",	c #E6E6E6",
"'	c #E8E8E8",
")	c #EAEAEA",
"!	c #E9E9E9",
"~	c #E7E7E7",
"{	c #727272",
"]	c #DDDDDD",
"^	c #DDDEDE",
"/	c #EDEDED",
"(	c #FDFDFD",
"_	c #F3F3F3",
":	c #E5E5E5",
"<	c #DEDEDE",
"[	c #A0A0A0",
"}	c #D3D3D3",
"|	c #D8D8D8",
"1	c #858585",
"2	c #616161",
"3	c #D4D4D4",
"4	c #A2A3A3",
"5	c #C8C9C9",
"6	c #CECECE",
"7	c #E3E3E3",
"8	c #3D3D3D",
"9	c #E4E4E4",
"0	c #CACACA",
"a	c #C8C8C8",
"b	c #A3A3A3",
"c	c #BEBEBE",
"d	c #CBCACA",
"e	c #FCFCFC",
"f	c #B0B0B0",
"g	c #B5B5B5",
"h	c #C3C2C2",
"i	c #BDBCBC",
"j	c #9A9A9A",
"k	c #898989",
"l	c #B2B2B2",
"m	c #A7A7A7",
"n	c #D2D2D2",
"o	c #E0DFDF",
"p	c #B4B4B4",
"q	c #6A6969",
"r	c #BABABA",
"s	c #B1B1B1",
"t	c #5D5D5D",
"u	c #A5A5A5",
"v	c #CFCFCF",
"w	c #ADADAD",
"x	c #B6B6B6",
"y	c #D5D4D4",
"z	c #BFBFBF",
"A	c #ABABAB",
"B	c #858484",
"C	c #9E9D9D",
"D	c #A8A7A7",
"E	c #9C9B9B",
"F	c #979696",
"G	c #9A9999",
"H	c #A6A5A5",
"I	c #A3A2A2",
"J	c #989797",
"K	c #848383",
"L	c #434343",
"M	c #8B8A8A",
"N	c #8A8989",
"O	c #888787",
"P	c #8C8A8A",
"Q	c #8A8888",
"R	c #838282",
"S	c #414040",
"T	c #6D6C6C",
"U	c #797878",
"V	c #494949",
"W	c #5A5959",
"X	c #5E5D5D",
"Y	c #616060",
"     ......     ",
"   ..+@##@+..   ",
"  .$%&&&&&&%$.  ",
" .*=---;----=*. ",
" .>,,,')!~,,,>. ",
".{]]^=/(_:<]]]{.",
".[}}|'(12,]3}}[.",
".4567(1882930a4.",
".bcde18fg823hij.",
".kl>k8mnop8qrsk.",
".tugvwiwxyzwAbt.",
" .BCADEFGHwIJK. ",
" .LKMNOOONPQRL. ",
"  .STUUUUUUTS.  ",
"   ..VWXYWV..   ",
"     ......     "};
