/* XPM */
static char * save_icon16x16_xpm[] = {
"16 16 19 1",
" 	c None",
".	c #0A0E2F",
"+	c #E6E6E6",
"@	c #12208D",
"#	c #4F5BB4",
"$	c #161E57",
"%	c #4E5A70",
"&	c #E6E7E7",
"*	c #333D50",
"=	c #7F8696",
"-	c #FFFFFF",
";	c #808080",
">	c #8191AB",
",	c #F3F3F3",
"'	c #E1E1E1",
")	c #CECECE",
"!	c #BCBCBC",
"~	c #0C102E",
"{	c #4D4D4D",
" .............. ",
".+++@#######@++.",
".+$$%&&&&&&&%$$.",
".+$$%&&&&&&&%$$.",
".+$$%&&&&&&&%$$.",
".+$$%&&&&&&&%$$.",
".+$$%&&&&&&&%$$.",
".+$$*%%%%%%%*$$.",
".+$$$$$$$$$$$$$.",
".+$$$$$$$$$$$$$.",
".+$$=-------;$$.",
".+$$=-*>,,,,;$$.",
".+$$=-*>'''';$$.",
".+$$=-*>))));$$.",
" ...=-!!!!!!;~. ",
"    {{{{{{{{{   "};
