/* XPM */
static char * chain24x24_on_xpm[] = {
"24 24 5 1",
" 	c None",
".	c #000000",
"+	c #00FF00",
"@	c #A5A5A5",
"#	c #757575",
"........................",
".++++++++++++++++++++++.",
".++++++++++++++++++++++.",
".++++++++++++++++++++++.",
".++++++++++++++++++++++.",
".++++++++++++++++++++++.",
".++++++++++++++++++++++.",
".++++++++++++++++++++++.",
".++++++++++++++++++++++.",
".++++++++++++++++++++++.",
".++@@@@@@+++++@@@@@@+++.",
".+@@@@@@@@+++@@@@@@@@++.",
".###++++#######++++####.",
".###++++#######++++####.",
".+@@@@@@@@+++@@@@@@@@++.",
".++@@@@@@+++++@@@@@@+++.",
".++++++++++++++++++++++.",
".++++++++++++++++++++++.",
".++++++++++++++++++++++.",
".++++++++++++++++++++++.",
".++++++++++++++++++++++.",
".++++++++++++++++++++++.",
".++++++++++++++++++++++.",
"........................"};
